<?xml version="1.0" encoding="UTF-8"?>
<svg id="Capa_1" data-name="Capa 1" xmlns="http://www.w3.org/2000/svg" viewBox="0 0 179.99 228.73">
  <defs>
    <style>
      .cls-1 {
        fill: #c4e0ff;
      }

      .cls-2 {
        fill: #c3dffe;
      }

      .cls-3 {
        fill: #e1f1ff;
      }

      .cls-4 {
        fill: #99cff9;
      }

      .cls-5 {
        fill: #74b3fb;
      }
    </style>
  </defs>
  <path class="cls-5" d="M80.01,31.71h20.95c2.5,0,4.53,2.03,4.53,4.53v8.97h-30.01v-8.98c0-2.5,2.03-4.52,4.52-4.52Z"/>
  <rect class="cls-2" x="78.4" y="45.21" width="24.05" height="6.97"/>
  <rect class="cls-4" x="77.26" y="47.35" width="26.41" height="2.55" rx="1.16" ry="1.16"/>
  <path class="cls-3" d="M81.74,51.06h17.53c10.32,0,18.7,8.38,18.7,18.7v122.73c0,4.59-3.72,8.31-8.31,8.31h-38.38c-4.55,0-8.25-3.7-8.25-8.25V69.77c0-10.33,8.38-18.71,18.71-18.71Z"/>
  <path class="cls-1" d="M63.03,64.31h54.94v127.74c0,4.59-3.72,8.31-8.31,8.31h-38.38c-4.55,0-8.25-3.7-8.25-8.25V64.31h0Z"/>
</svg>