<?xml version="1.0" encoding="UTF-8"?>
<svg id="Capa_1" data-name="Capa 1" xmlns="http://www.w3.org/2000/svg" viewBox="0 0 179.99 228.73">
  <defs>
    <style>
      .cls-1 {
        fill: #fff;
      }
    </style>
  </defs>
  <path class="cls-1" d="M142.9,0H34.25c-.17,76.24,1.83,152.49,.03,228.73h108.56c-.18-76.24,.46-152.3,.05-228.73Zm-24.93,192.48c0,4.59-3.72,8.31-8.31,8.31h-38.38c-4.56,0-8.25-3.69-8.25-8.25V69.77c0-9.19,6.63-16.82,15.37-18.4v-1.47c-.63-.01-1.14-.52-1.14-1.15v-.23c0-.63,.51-1.14,1.14-1.15v-2.14h-2.92v-8.98c0-2.5,2.03-4.52,4.52-4.52h20.95c2.5,0,4.53,2.03,4.53,4.53v8.97h-3.04v2.14h.06c.64,0,1.16,.52,1.16,1.16v.23c0,.64-.52,1.16-1.16,1.16h-.06v1.44c8.81,1.51,15.51,9.17,15.51,18.41v122.73Z"/>
</svg>