<?xml version="1.0" encoding="UTF-8"?>
<svg id="Capa_1" data-name="Capa 1" xmlns="http://www.w3.org/2000/svg" viewBox="0 0 179.99 228.73">
  <defs>
    <style>
      .cls-1 {
        fill: #c9dde4;
      }
    </style>
  </defs>
  <path class="cls-1" d="M119.37,84h0s-.01-.11-.05-.32c-.03-.2-.06-.4-.09-.59-.72-4.49-4.55-24.57-16.61-33.15h.08c-.85-.45-1.13-.98-1.22-1.38v-4.77h.49c1.08,0,1.96-.88,1.96-1.96v-8.16c0-1.08-.88-1.96-1.96-1.96h-23.14c-1.08,0-1.96,.88-1.96,1.96v8.16c0,1.08,.88,1.96,1.96,1.96h.38v4.19c0,1.02-1.11,1.97-1.11,1.97h.08c-3.2,2.47-11.73,10.69-16.28,30.72-.35,1.25-.62,2.54-.8,3.86,0,.05-.02,.1-.03,.15h.01c-.16,1.21-.25,2.44-.25,3.69v91.92c0,11.32,9.18,20.5,20.5,20.5h20.96c9.56,0,17.32-7.75,17.32-17.32V87.59c0-1.22-.09-2.42-.24-3.59Z"/>
</svg>