<?xml version="1.0" encoding="UTF-8"?>
<svg id="Capa_1" data-name="Capa 1" xmlns="http://www.w3.org/2000/svg" viewBox="0 0 179.99 228.73">
  <defs>
    <style>
      .cls-1 {
        fill: #fff;
      }
    </style>
  </defs>
  <path class="cls-1" d="M48.16,0H0M48.16,228.73h88.44L135.95,0H48.16M0,228.73H48.16M0,0V228.73m119.61-45.29c0,9.56-7.75,17.32-17.32,17.32h-20.96c-11.32,0-20.5-9.18-20.5-20.5V88.34c0-1.25,.09-2.48,.25-3.69h-.01c0-.05,.02-.1,.03-.15,.18-1.32,.45-2.6,.8-3.86,4.55-20.02,13.08-28.25,16.28-30.72h-.08s1.11-.95,1.11-1.97v-4.19h-.38c-1.08,0-1.96-.88-1.96-1.96v-8.16c0-1.08,.88-1.96,1.96-1.96h23.14c1.08,0,1.96,.88,1.96,1.96v8.16c0,1.08-.88,1.96-1.96,1.96h-.49v4.77c.08,.4,.36,.93,1.22,1.38h-.08c12.06,8.58,15.89,28.67,16.61,33.15,.03,.2,.06,.39,.09,.59,.03,.21,.05,.32,.05,.32h0c.15,1.18,.24,2.38,.24,3.59v95.85Z"/>
</svg>